<?xml version="1.0" encoding="UTF-8"?> <svg xmlns="http://www.w3.org/2000/svg" width="66" height="65" viewBox="0 0 66 65" fill="none"> <path d="M16.75 0.5H10.25V10.25H0.5V16.75H10.25V26.5H16.75V16.75H26.5V10.25H16.75V0.5Z" fill="#F26E6E"></path> <path d="M65.5 10.25H39.5V16.75H65.5V10.25Z" fill="#F26E6E"></path> <path d="M65.5 42.75H39.5V49.25H65.5V42.75Z" fill="#F26E6E"></path> <path d="M65.5 55.75H39.5V62.25H65.5V55.75Z" fill="#F26E6E"></path> <path d="M20.9425 40.4426L13.5 47.9176L6.05751 40.4426L1.4425 45.0576L8.91751 52.5001L1.4425 59.9426L6.05751 64.5576L13.5 57.0826L20.9425 64.5576L25.5575 59.9426L18.0825 52.5001L25.5575 45.0576L20.9425 40.4426Z" fill="#F26E6E"></path> </svg> 